grf
version=1
nRows=11
nColumns=73
inDegrees=yes
endheader
time	ground_force_1_vx	ground_force_1_vy	ground_force_1_vz	ground_force_1_px	ground_force_1_py	ground_force_1_pz	ground_moment_1_mx	ground_moment_1_my	ground_moment_1_mz	ground_force_2_vx	ground_force_2_vy	ground_force_2_vz	ground_force_2_px	ground_force_2_py	ground_force_2_pz	ground_moment_2_mx	ground_moment_2_my	ground_moment_2_mz	ground_force_3_vx	ground_force_3_vy	ground_force_3_vz	ground_force_3_px	ground_force_3_py	ground_force_3_pz	ground_moment_3_mx	ground_moment_3_my	ground_moment_3_mz	ground_force_4_vx	ground_force_4_vy	ground_force_4_vz	ground_force_4_px	ground_force_4_py	ground_force_4_pz	ground_moment_4_mx	ground_moment_4_my	ground_moment_4_mz	ground_force_5_vx	ground_force_5_vy	ground_force_5_vz	ground_force_5_px	ground_force_5_py	ground_force_5_pz	ground_moment_5_mx	ground_moment_5_my	ground_moment_5_mz	ground_force_6_vx	ground_force_6_vy	ground_force_6_vz	ground_force_6_px	ground_force_6_py	ground_force_6_pz	ground_moment_6_mx	ground_moment_6_my	ground_moment_6_mz	ground_force_7_vx	ground_force_7_vy	ground_force_7_vz	ground_force_7_px	ground_force_7_py	ground_force_7_pz	ground_moment_7_mx	ground_moment_7_my	ground_moment_7_mz	ground_force_8_vx	ground_force_8_vy	ground_force_8_vz	ground_force_8_px	ground_force_8_py	ground_force_8_pz	ground_moment_8_mx	ground_moment_8_my	ground_moment_8_mz
4.734000	-7.328728	433.664533	13.404656	0.396360	0.000000	0.326825	-0.000000	0.370818	0.000000	0.000000	0.000000	0.000000	0.000000	0.000000	0.000000	0.000000	0.000000	0.000000	-8.886921	360.131925	11.088449	0.414052	0.000000	0.332398	-0.000000	0.184833	0.000000	1.563052	73.545682	2.316389	0.325981	0.000000	0.313504	-0.000000	0.230874	-0.000000	-9.210665	359.042061	10.941589	0.414809	0.000000	0.329674	0.000000	0.274840	-0.000000	1.345693	71.045409	2.282958	0.328044	0.000000	0.315374	-0.000000	0.192952	0.000000	0.000000	0.000000	0.000000	0.000000	0.000000	0.000000	0.000000	0.000000	0.000000	0.000000	0.000000	0.000000	0.000000	0.000000	0.000000	0.000000	0.000000	0.000000
4.735000	-7.095228	434.312319	13.405857	0.395418	0.000000	0.326833	-0.000000	0.360981	0.000000	0.000000	0.000000	0.000000	0.000000	0.000000	0.000000	0.000000	0.000000	0.000000	-8.797372	359.495879	11.104360	0.413198	0.000000	0.332526	-0.000000	0.177114	0.000000	1.706339	74.826532	2.301849	0.325961	0.000000	0.313183	-0.000000	0.236030	-0.000000	-9.136826	358.535584	10.951161	0.413966	0.000000	0.329793	0.000000	0.276749	-0.000000	1.487545	72.188577	2.244640	0.328136	0.000000	0.315123	-0.000000	0.193039	0.000000	0.000000	0.000000	0.000000	0.000000	0.000000	0.000000	0.000000	0.000000	0.000000	0.000000	0.000000	0.000000	0.000000	0.000000	0.000000	0.000000	0.000000	0.000000
4.736000	-6.854583	434.980192	13.420984	0.394470	0.000000	0.326845	-0.000000	0.347739	0.000000	0.000000	0.000000	0.000000	0.000000	0.000000	0.000000	0.000000	0.000000	0.000000	-8.700722	358.811220	11.126866	0.412354	0.000000	0.332662	-0.000000	0.165197	0.000000	1.849626	76.176226	2.294606	0.325909	0.000000	0.312879	-0.000000	0.241644	-0.000000	-9.056957	357.983647	10.964466	0.413124	0.000000	0.329915	0.000000	0.275211	-0.000000	1.629864	73.396087	2.213303	0.328196	0.000000	0.314885	-0.000000	0.193656	0.000000	0.000000	0.000000	0.000000	0.000000	0.000000	0.000000	0.000000	0.000000	0.000000	0.000000	0.000000	0.000000	0.000000	0.000000	0.000000	0.000000	0.000000	0.000000
4.737000	-6.608057	435.669532	13.449150	0.393516	0.000000	0.326864	-0.000000	0.331073	0.000000	0.000000	0.000000	0.000000	0.000000	0.000000	0.000000	0.000000	0.000000	0.000000	-8.598361	358.074740	11.155341	0.411520	0.000000	0.332805	-0.000000	0.149115	0.000000	1.993049	77.599395	2.294402	0.325818	0.000000	0.312598	-0.000000	0.247700	-0.000000	-8.969274	357.383503	10.982571	0.412282	0.000000	0.330039	0.000000	0.269791	-0.000000	1.772006	74.671759	2.189234	0.328219	0.000000	0.314663	-0.000000	0.194933	0.000000	0.000000	0.000000	0.000000	0.000000	0.000000	0.000000	0.000000	0.000000	0.000000	0.000000	0.000000	0.000000	0.000000	0.000000	0.000000	0.000000	0.000000	0.000000
4.738000	-6.356997	436.381286	13.488987	0.392555	0.000000	0.326889	-0.000000	0.311463	0.000000	0.000000	0.000000	0.000000	0.000000	0.000000	0.000000	0.000000	0.000000	0.000000	-8.492731	357.283243	11.188661	0.410697	0.000000	0.332957	-0.000000	0.129238	-0.000000	2.137718	79.100220	2.301001	0.325685	0.000000	0.312341	-0.000000	0.254352	-0.000000	-8.873105	356.731730	11.005589	0.411442	0.000000	0.330166	0.000000	0.260188	-0.000000	1.913449	76.019701	2.172423	0.328197	0.000000	0.314460	-0.000000	0.196859	0.000000	0.000000	0.000000	0.000000	0.000000	0.000000	0.000000	0.000000	0.000000	0.000000	0.000000	0.000000	0.000000	0.000000	0.000000	0.000000	0.000000	0.000000	0.000000
4.739000	-6.102379	437.115023	13.538307	0.391588	0.000000	0.326919	-0.000000	0.289918	0.000000	0.000000	0.000000	0.000000	0.000000	0.000000	0.000000	0.000000	0.000000	0.000000	-8.386780	356.432944	11.225070	0.409885	0.000000	0.333116	-0.000000	0.106385	-0.000000	2.285614	80.682098	2.313972	0.325511	0.000000	0.312111	-0.000000	0.261852	-0.000000	-8.769279	356.024651	11.032944	0.410605	0.000000	0.330297	0.000000	0.246311	-0.000000	2.054296	77.443996	2.162836	0.328125	0.000000	0.314278	-0.000000	0.199471	0.000000	0.000000	0.000000	0.000000	0.000000	0.000000	0.000000	0.000000	0.000000	0.000000	0.000000	0.000000	0.000000	0.000000	0.000000	0.000000	0.000000	0.000000	0.000000
4.740000	-5.844431	437.868501	13.594232	0.390612	0.000000	0.326954	-0.000000	0.267775	0.000000	0.000000	0.000000	0.000000	0.000000	0.000000	0.000000	0.000000	0.000000	0.000000	-8.283297	355.519282	11.262436	0.409082	0.000000	0.333280	-0.000000	0.081683	-0.000000	2.439304	82.347389	2.332574	0.325300	0.000000	0.311909	-0.000000	0.270486	-0.000000	-8.659934	355.258725	11.063701	0.409771	0.000000	0.330431	0.000000	0.228328	-0.000000	2.195642	78.948303	2.160482	0.328000	0.000000	0.314117	-0.000000	0.202975	0.000000	0.000000	0.000000	0.000000	0.000000	0.000000	0.000000	0.000000	0.000000	0.000000	0.000000	0.000000	0.000000	0.000000	0.000000	0.000000	0.000000	0.000000	0.000000
4.741000	-5.582710	438.638213	13.653974	0.389630	0.000000	0.326992	-0.000000	0.246314	0.000000	0.000000	0.000000	0.000000	0.000000	0.000000	0.000000	0.000000	0.000000	0.000000	-8.184556	354.537343	11.298839	0.408287	0.000000	0.333448	-0.000000	0.056198	-0.000000	2.601516	84.097537	2.355943	0.325061	0.000000	0.311732	-0.000000	0.280559	-0.000000	-8.548034	354.430221	11.096441	0.408939	0.000000	0.330568	0.000000	0.206812	-0.000000	2.339495	80.535447	2.165193	0.327825	0.000000	0.313978	-0.000000	0.207681	0.000000	0.000000	0.000000	0.000000	0.000000	0.000000	0.000000	0.000000	0.000000	0.000000	0.000000	0.000000	0.000000	0.000000	0.000000	0.000000	0.000000	0.000000	0.000000
4.742000	-5.316762	439.420304	13.715081	0.388640	0.000000	0.327032	-0.000000	0.226446	0.000000	0.000000	0.000000	0.000000	0.000000	0.000000	0.000000	0.000000	0.000000	0.000000	-8.092549	353.482127	11.332673	0.407496	0.000000	0.333620	-0.000000	0.030738	-0.000000	2.774709	85.933723	2.383234	0.324804	0.000000	0.311577	-0.000000	0.292263	-0.000000	-8.436693	353.534900	11.129235	0.408110	0.000000	0.330707	0.000000	0.182754	-0.000000	2.488512	82.207338	2.176443	0.327605	0.000000	0.313859	-0.000000	0.213930	0.000000	0.000000	0.000000	0.000000	0.000000	0.000000	0.000000	0.000000	0.000000	0.000000	0.000000	0.000000	0.000000	0.000000	0.000000	0.000000	0.000000	0.000000	0.000000
4.743000	-5.046983	440.211042	13.774752	0.387645	0.000000	0.327072	-0.000000	0.208627	0.000000	0.000000	0.000000	0.000000	0.000000	0.000000	0.000000	0.000000	0.000000	0.000000	-8.009614	352.348401	11.362140	0.406710	0.000000	0.333796	-0.000000	0.006052	-0.000000	2.960838	87.857476	2.413447	0.324540	0.000000	0.311439	-0.000000	0.305395	-0.000000	-8.328588	352.568428	11.160145	0.407282	0.000000	0.330848	0.000000	0.157254	-0.000000	2.645601	83.965245	2.193509	0.327350	0.000000	0.313756	-0.000000	0.222080	0.000000	0.000000	0.000000	0.000000	0.000000	0.000000	0.000000	0.000000	0.000000	0.000000	0.000000	0.000000	0.000000	0.000000	0.000000	0.000000	0.000000	0.000000	0.000000
4.744000	-4.775112	441.006939	13.829572	0.386647	0.000000	0.327111	-0.000000	0.193038	0.000000	0.000000	0.000000	0.000000	0.000000	0.000000	0.000000	0.000000	0.000000	0.000000	-7.938891	351.130692	11.385053	0.405928	0.000000	0.333976	-0.000000	-0.016938	-0.000000	3.161317	89.870814	2.445358	0.324279	0.000000	0.311312	-0.000000	0.319302	-0.000000	-8.225911	351.526754	11.187632	0.406453	0.000000	0.330990	0.000000	0.131199	-0.000000	2.813440	85.810382	2.215673	0.327069	0.000000	0.313663	-0.000000	0.232399	0.000000	0.000000	0.000000	0.000000	0.000000	0.000000	0.000000	0.000000	0.000000	0.000000	0.000000	0.000000	0.000000	0.000000	0.000000	0.000000	0.000000	0.000000	0.000000
